<?xml version="1.0" encoding="UTF-8" standalone="no"?>
<!DOCTYPE svg PUBLIC "-//W3C//DTD SVG 1.1//EN" "http://www.w3.org/Graphics/SVG/1.1/DTD/svg11.dtd">
<svg width="100%" height="100%" viewBox="0 0 1396 720" version="1.1" xmlns="http://www.w3.org/2000/svg" xmlns:xlink="http://www.w3.org/1999/xlink" xml:space="preserve" xmlns:serif="http://www.serif.com/" style="fill-rule:evenodd;clip-rule:evenodd;stroke-linecap:round;stroke-linejoin:round;stroke-miterlimit:1.5;">
    <g transform="matrix(1.40883,0.123257,-0.174311,1.99239,269.07,-40.2768)">
        <path d="M349,360L349,0" style="fill:none;stroke:rgb(98,147,139);stroke-width:1.2px;"/>
    </g>
    <g transform="matrix(1.41421,0.378937,-0.535898,2,397.363,-132.249)">
        <path d="M349,360L349,0" style="fill:none;stroke:rgb(98,147,139);stroke-width:1.16px;"/>
    </g>
    <g transform="matrix(1.41421,0.815736,-1.15363,2,619.745,-284.692)">
        <path d="M349,360L349,0" style="fill:none;stroke:rgb(98,147,139);stroke-width:1.04px;"/>
    </g>
    <g transform="matrix(1.41421,0.990243,-1.40042,2,708.589,-345.595)">
        <path d="M349,360L349,0" style="fill:none;stroke:rgb(98,147,139);stroke-width:0.99px;"/>
    </g>
    <g transform="matrix(1.41421,1.18764,-1.67957,2,809.086,-414.486)">
        <path d="M349,360L349,0" style="fill:none;stroke:rgb(98,147,139);stroke-width:0.92px;"/>
    </g>
    <g transform="matrix(1.365,1.3672,-1.93889,1.93576,919.617,-454.027)">
        <path d="M349,360L349,0" style="fill:none;stroke:rgb(98,147,139);stroke-width:0.88px;"/>
    </g>
    <g transform="matrix(1.14758,1.371,-1.93889,1.62293,995.494,-342.733)">
        <path d="M349,360L349,0" style="fill:none;stroke:rgb(98,147,139);stroke-width:0.95px;"/>
    </g>
    <g transform="matrix(0.95404,1.3672,-1.93889,1.35297,1063.04,-244.221)">
        <path d="M349,360L349,0" style="fill:none;stroke:rgb(98,147,139);stroke-width:1.02px;"/>
    </g>
    <g transform="matrix(0.785681,1.3672,-1.93889,1.11421,1121.8,-158.268)">
        <path d="M349,360L349,0" style="fill:none;stroke:rgb(98,147,139);stroke-width:1.08px;"/>
    </g>
    <g transform="matrix(0.633512,1.3672,-1.93889,0.898412,1174.9,-80.5811)">
        <path d="M349,360L349,0" style="fill:none;stroke:rgb(98,147,139);stroke-width:1.13px;"/>
    </g>
    <g transform="matrix(0.493253,1.3672,-1.93889,0.699505,1223.85,-8.97422)">
        <path d="M349,360L349,0" style="fill:none;stroke:rgb(98,147,139);stroke-width:1.17px;"/>
    </g>
    <g transform="matrix(0.362621,1.371,-1.93889,0.512824,1269.45,56.9039)">
        <path d="M349,360L349,0" style="fill:none;stroke:rgb(98,147,139);stroke-width:1.2px;"/>
    </g>
    <g transform="matrix(0.236616,1.371,-1.93889,0.334626,1313.42,121.055)">
        <path d="M349,360L349,0" style="fill:none;stroke:rgb(98,147,139);stroke-width:1.22px;"/>
    </g>
    <g transform="matrix(0.114059,1.3672,-1.93351,0.161304,1354.26,184.778)">
        <path d="M349,360L349,0" style="fill:none;stroke:rgb(98,147,139);stroke-width:1.24px;"/>
    </g>
    <g transform="matrix(-0.00627474,1.4142,-1.99998,-0.00887382,1420.18,229.639)">
        <path d="M349,360L349,0" style="fill:none;stroke:rgb(98,147,139);stroke-width:1.2px;"/>
    </g>
    <g transform="matrix(1.41421,0.514691,-0.727882,2,466.477,-179.627)">
        <path d="M349,360L349,0" style="fill:none;stroke:rgb(98,147,139);stroke-width:1.13px;"/>
    </g>
    <g transform="matrix(1.41421,0.659459,-0.932615,2,540.181,-230.151)">
        <path d="M349,360L349,0" style="fill:none;stroke:rgb(98,147,139);stroke-width:1.09px;"/>
    </g>
    <g transform="matrix(1.41421,0.249364,-0.352654,2,331.395,-87.028)">
        <path d="M349,360L349,0" style="fill:none;stroke:rgb(98,147,139);stroke-width:1.18px;"/>
    </g>
    <g transform="matrix(1.41421,5.53443e-16,-6.16481e-16,2,204.439,-3.97904e-13)">
        <path d="M349,360L349,0" style="fill:none;stroke:rgb(98,147,139);stroke-width:1.2px;"/>
    </g>
    <g transform="matrix(1.40883,-0.123257,0.174977,2,143.326,43.0166)">
        <path d="M349,360L349,0" style="fill:none;stroke:rgb(98,147,139);stroke-width:1.2px;"/>
    </g>
    <g transform="matrix(1.41421,-0.249364,0.352654,2,77.484,87.028)">
        <path d="M349,360L349,0" style="fill:none;stroke:rgb(98,147,139);stroke-width:1.18px;"/>
    </g>
    <g transform="matrix(1.41421,-0.378937,0.535898,2,11.516,132.249)">
        <path d="M349,360L349,0" style="fill:none;stroke:rgb(98,147,139);stroke-width:1.16px;"/>
    </g>
    <g transform="matrix(1.41421,-0.514732,0.72794,2,-57.6191,179.641)">
        <path d="M349,360L349,0" style="fill:none;stroke:rgb(98,147,139);stroke-width:1.13px;"/>
    </g>
    <g transform="matrix(1.41421,-0.659459,0.932615,2,-131.302,230.151)">
        <path d="M349,360L349,0" style="fill:none;stroke:rgb(98,147,139);stroke-width:1.09px;"/>
    </g>
    <g transform="matrix(1.41421,-0.816497,1.1547,2,-211.253,284.957)">
        <path d="M349,360L349,0" style="fill:none;stroke:rgb(98,147,139);stroke-width:1.04px;"/>
    </g>
    <g transform="matrix(1.41421,-0.990243,1.40042,2,-299.71,345.595)">
        <path d="M349,360L349,0" style="fill:none;stroke:rgb(98,147,139);stroke-width:0.99px;"/>
    </g>
    <g transform="matrix(1.41421,-1.18667,1.6782,2,-399.712,414.146)">
        <path d="M349,360L349,0" style="fill:none;stroke:rgb(98,147,139);stroke-width:0.92px;"/>
    </g>
    <g transform="matrix(1.371,-1.371,1.93889,1.93889,-478.48,500.48)">
        <path d="M349,360L349,0" style="fill:none;stroke:rgb(98,147,139);stroke-width:0.88px;"/>
    </g>
    <g transform="matrix(1.15041,-1.371,1.93889,1.62692,-401.492,612.788)">
        <path d="M349,360L349,0" style="fill:none;stroke:rgb(98,147,139);stroke-width:0.95px;"/>
    </g>
    <g transform="matrix(0.959986,-1.371,1.93889,1.35762,-335.035,709.735)">
        <path d="M349,360L349,0" style="fill:none;stroke:rgb(98,147,139);stroke-width:1.02px;"/>
    </g>
    <g transform="matrix(0.791548,-1.371,1.93889,1.11942,-276.25,795.489)">
        <path d="M349,360L349,0" style="fill:none;stroke:rgb(98,147,139);stroke-width:1.07px;"/>
    </g>
    <g transform="matrix(0.639308,-1.371,1.93889,0.904119,-223.119,872.997)">
        <path d="M349,360L349,0" style="fill:none;stroke:rgb(98,147,139);stroke-width:1.12px;"/>
    </g>
    <g transform="matrix(0.499004,-1.371,1.93889,0.705698,-174.152,944.428)">
        <path d="M349,360L349,0" style="fill:none;stroke:rgb(98,147,139);stroke-width:1.17px;"/>
    </g>
    <g transform="matrix(0.366025,-1.36603,1.93889,0.519524,-127.743,1009.71)">
        <path d="M349,360L349,0" style="fill:none;stroke:rgb(98,147,139);stroke-width:1.2px;"/>
    </g>
    <g transform="matrix(0.245576,-1.39273,1.96962,0.347296,-96.7675,1081.04)">
        <path d="M349,360L349,0" style="fill:none;stroke:rgb(98,147,139);stroke-width:1.2px;"/>
    </g>
    <g transform="matrix(0.123257,-1.40883,1.99239,0.174311,-62.2768,1148.93)">
        <path d="M349,360L349,0" style="fill:none;stroke:rgb(98,147,139);stroke-width:1.2px;"/>
    </g>
    <g transform="matrix(-8.27116e-15,-1.41421,2,-1.16296e-14,-22,1213.56)">
        <path d="M349,360L349,0" style="fill:none;stroke:rgb(98,147,139);stroke-width:1.2px;"/>
    </g>
</svg>
