<svg width="174" height="7" viewBox="0 0 174 7" fill="none" xmlns="http://www.w3.org/2000/svg">
<path d="M1 3.5C6.73333 0.166667 12.4667 0.166667 18.2 3.5C23.9333 6.83333 29.6667 6.83333 35.4 3.5C41.1333 0.166667 46.8667 0.166667 52.6 3.5C58.3333 6.83333 64.0667 6.83333 69.8 3.5C75.5333 0.166667 81.2667 0.166667 87 3.5C92.7333 6.83333 98.4667 6.83333 104.2 3.5C109.933 0.166667 115.667 0.166667 121.4 3.5C127.133 6.83333 132.867 6.83333 138.6 3.5C144.333 0.166667 150.067 0.166667 155.8 3.5C161.533 6.83333 167.267 6.83333 173 3.5" stroke="#62938B"/>
</svg>
