<?xml version="1.0" encoding="UTF-8" standalone="no"?>
<!DOCTYPE svg PUBLIC "-//W3C//DTD SVG 1.1//EN" "http://www.w3.org/Graphics/SVG/1.1/DTD/svg11.dtd">
<svg width="100%" height="100%" viewBox="0 0 162 13" version="1.1" xmlns="http://www.w3.org/2000/svg" xmlns:xlink="http://www.w3.org/1999/xlink" xml:space="preserve" xmlns:serif="http://www.serif.com/" style="fill-rule:evenodd;clip-rule:evenodd;stroke-linecap:round;stroke-linejoin:round;stroke-miterlimit:1.5;">
    <g transform="matrix(1,0,0,1,-88.998,-188.435)">
        <g transform="matrix(1,0,0,1,49.9609,-0.280866)">
            <path d="M40.037,200.588C40.037,200.588 53.142,189.716 59.797,189.716C66.452,189.716 79.425,200.588 79.965,200.588C79.425,200.588 93.216,189.716 99.871,189.716C106.525,189.716 119.942,200.588 119.892,200.588C119.942,200.588 133.29,189.716 139.944,189.716C146.599,189.716 159.812,200.588 159.82,200.588C159.812,200.588 173.363,189.716 180.018,189.716C186.672,189.716 199.386,200.588 199.748,200.588" style="fill:none;stroke:black;stroke-width:2px;stroke-dasharray:4,4,0,0;"/>
        </g>
    </g>
</svg>
