<svg style="position: absolute; width: 0; height: 0; overflow: hidden;" version="1.1" xmlns="http://www.w3.org/2000/svg" xmlns:xlink="http://www.w3.org/1999/xlink">
<defs>
<symbol id="icon-search" viewBox="0 0 32 32">
<title>search</title>
<path d="M29.4 26.6l-7.4-7.4c1.2-1.8 2-4 2-6.2 0-6-5-11-11-11s-11 5-11 11 5 11 11 11c2.4 0 4.4-0.8 6.2-2l7.4 7.4 2.8-2.8zM5 13c0-4.4 3.6-8 8-8s8 3.6 8 8-3.6 8-8 8-8-3.6-8-8z"></path>
</symbol>
<symbol id="icon-previous" viewBox="0 0 32 32">
<title>previous</title>
<path d="M26 14h-13.2l4.6-4.6-2.8-2.8-9.4 9.4 9.4 9.4 2.8-2.8-4.6-4.6h13.2z"></path>
</symbol>
<symbol id="icon-next" viewBox="0 0 32 32">
<title>next</title>
<path d="M6 14h13.2l-4.6-4.6 2.8-2.8 9.4 9.4-9.4 9.4-2.8-2.8 4.6-4.6h-13.2z"></path>
</symbol>
<symbol id="icon-tag" viewBox="0 0 32 32">
<title>tag</title>
<path d="M22.6 8.6c-0.4-0.4-0.8-0.6-1.4-0.6h-15.2c-1 0-2 1-2 2v12c0 1.2 1 2 2 2h15.2c0.6 0 1-0.2 1.4-0.6l7.4-7.4-7.4-7.4zM20 18c-1 0-2-1-2-2s1-2 2-2 2 1 2 2-1 2-2 2z"></path>
</symbol>
<symbol id="icon-category" viewBox="0 0 32 32">
<title>category</title>
<path d="M26 10h-10l-1.4-2.8c-0.4-0.8-1-1.2-1.8-1.2h-6.8c-1 0-2 1-2 2v16c0 1.2 1 2 2 2h20c1.2 0 2-0.8 2-2v-12c0-1.2-0.8-2-2-2z"></path>
</symbol>
<symbol id="icon-expand" viewBox="0 0 32 32">
<title>expand</title>
<path d="M16 25.4l-13.4-13.4 2.8-2.8 10.6 10.6 10.6-10.6 2.8 2.8z"></path>
</symbol>
<symbol id="icon-menu" viewBox="0 0 32 32">
<title>menu</title>
<path d="M0 28h32v-4h-32v4zM0 4v4h32v-4h-32zM0 18h32v-4h-32v4z"></path>
</symbol>
<symbol id="icon-location" viewBox="0 0 16 16">
<title>location</title>
<path d="M11.5 3.5c-2-2-5.1-2-7.1 0s-2 5.1 0 7.1L8 14.1l3.5-3.5c2-2 2-5.2 0-7.1zM9.4 8.4c-.8.8-2 .8-2.8 0-.8-.8-.8-2 0-2.8.8-.8 2-.8 2.8 0 .8.8.8 2 0 2.8z"></path>
</symbol>
<symbol id="icon-phone" viewBox="0 0 16 16">
<title>phone</title>
<path d="M10 1H6c-1.1 0-2 .9-2 2v10c0 1.1.9 2 2 2h4c1.1 0 2-.9 2-2V3c0-1.1-.9-2-2-2zM8.5 14h-1c-.3 0-.5-.2-.5-.5s.2-.5.5-.5h1c.3 0 .5.2.5.5s-.2.5-.5.5zm2.5-2H5V3h6v9z"></path>
</symbol>
<symbol id="icon-mail" viewBox="0 0 16 16">
<title>mail</title>
<path d="M12 3H4c-1.1 0-2 .9-2 2v5c0 1.1.9 2 2 2h8c1.1 0 2-.9 2-2V5c0-1.1-.9-2-2-2zm1 3.2L8 9.1 3 6.2V5l5 2.9L13 5v1.2z"></path>
</symbol>
<symbol id="icon-time" viewBox="0 0 16 16">
<title>time</title>
<path d="M8 2C4.7 2 2 4.7 2 8s2.7 6 6 6 6-2.7 6-6-2.7-6-6-6zm2.5 9.5L7.2 8.3V4h1.5v3.7l2.8 2.8-1 1z"></path>
</symbol>
<symbol id="icon-cart" viewBox="0 0 16 16">
<title>cart</title>
<path d="M11,12c-0.6,0-1,0.4-1,1s0.4,1,1,1s1-0.4,1-1S11.6,12,11,12z M5,12c-0.6,0-1,0.4-1,1s0.4,1,1,1s1-0.4,1-1 S5.6,12,5,12z M11,10H5V9h5.6c0.8,0,1.5-0.5,1.9-1.3L14,4H5V3c0-0.6-0.4-1-1-1H2v1h2v7c0,0.6,0.4,1,1,1h6h1C12,10.4,11.6,10,11,10z"></path>
</symbol>
<symbol id="icon-zoom" viewBox="0 0 16 16">
<title>zoom</title>
<path d="M7,4H6v2H4v1h2v2h1V7h2V6H7V4z M11,9.6c0.6-0.9,1-2,1-3.1C12,3.5,9.5,1,6.5,1S1,3.5,1,6.5S3.5,12,6.5,12 c1.2,0,2.2-0.4,3.1-1l3.7,3.7l1.4-1.4L11,9.6z M6.5,10.5c-2.2,0-4-1.8-4-4s1.8-4,4-4s4,1.8,4,4S8.7,10.5,6.5,10.5z"/>
</symbol>
<symbol id="icon-edit" viewBox="0 0 16 16">
<title>edit</title>
<g>
	<path d="M12.6,6.9l0.5-0.5c0.8-0.8,0.8-2,0-2.8l-0.7-0.7c-0.8-0.8-2-0.8-2.8,0L9.1,3.4L12.6,6.9z"/>
	<polygon points="8.4,4.1 2,10.5 2,14 5.5,14 11.9,7.6"/>
</g>
</symbol>
<symbol id="icon-close" viewBox="0 0 32 32">
<title>close</title>
<path d="M25.4 9.4l-2.8-2.8-6.6 6.6-6.6-6.6-2.8 2.8 6.6 6.6-6.6 6.6 2.8 2.8 6.6-6.6 6.6 6.6 2.8-2.8-6.6-6.6z"></path>
</symbol>
</defs>
</svg>
