<svg class="svg-icon" width="16" height="16" aria-hidden="true" role="img" focusable="false" viewBox="0 0 24 24" fill="none" xmlns="http://www.w3.org/2000/svg"><path fill-rule="evenodd" clip-rule="evenodd" d="M12.1979 8.25L11.2098 6.27363C11.1259 6.10593 10.9545 6 10.767 6H4.995C4.72162 6 4.5 6.22162 4.5 6.495V17.505C4.5 17.7784 4.72162 18 4.995 18H19.0005C19.2764 18 19.5 17.7764 19.5 17.5005V8.7495C19.5 8.47363 19.2764 8.25 19.0005 8.25H12.1979ZM13.125 6.75H19.0005C20.1048 6.75 21 7.64521 21 8.7495V17.5005C21 18.6048 20.1048 19.5 19.0005 19.5H4.995C3.89319 19.5 3 18.6068 3 17.505V6.495C3 5.39319 3.89319 4.5 4.995 4.5H10.767C11.5227 4.5 12.2135 4.92693 12.5514 5.60281L13.125 6.75Z" fill="currentColor"></path></svg>
