<svg class="svg-icon" width="16" height="16" aria-hidden="true" role="img" focusable="false" viewBox="0 0 24 24" fill="none" xmlns="http://www.w3.org/2000/svg"><path fill-rule="evenodd" clip-rule="evenodd" d="M15 7.5C15 9.15685 13.6569 10.5 12 10.5C10.3431 10.5 9 9.15685 9 7.5C9 5.84315 10.3431 4.5 12 4.5C13.6569 4.5 15 5.84315 15 7.5ZM16.5 7.5C16.5 9.98528 14.4853 12 12 12C9.51472 12 7.5 9.98528 7.5 7.5C7.5 5.01472 9.51472 3 12 3C14.4853 3 16.5 5.01472 16.5 7.5ZM19.5 19.5V16.245C19.5 14.729 18.271 13.5 16.755 13.5L7.245 13.5C5.72898 13.5 4.5 14.729 4.5 16.245L4.5 19.5H6L6 16.245C6 15.5574 6.5574 15 7.245 15L16.755 15C17.4426 15 18 15.5574 18 16.245V19.5H19.5Z" fill="currentColor"></path></svg>
