<svg class="svg-icon" width="16" height="16" aria-hidden="true" role="img" focusable="false" viewBox="0 0 24 24" fill="none" xmlns="http://www.w3.org/2000/svg"><path fill-rule="evenodd" clip-rule="evenodd" d="M21.41 11.58l-9-9C12.05 2.22 11.55 2 11 2H4c-1.1 0-2 .9-2 2v7c0 .55.22 1.05.59 1.42l9 9c.36.36.86.58 1.41.58s1.05-.22 1.41-.59l7-7c.37-.36.59-.86.59-1.41s-.23-1.06-.59-1.42zM13 20.01L4 11V4h7v-.01l9 9l-7 7.02z" fill="currentColor"></path><circle cx="7" cy="7" r="1.5" fill="currentColor"/></svg>