<svg class="svg-icon" width="16" height="16" aria-hidden="true" role="img" focusable="false" viewBox="0 0 24 24" fill="none" xmlns="http://www.w3.org/2000/svg"><path fill-rule="evenodd" clip-rule="evenodd" d="M19.5 7.5H4.5V19.0005C4.5 19.2764 4.72363 19.5 4.9995 19.5H19.0005C19.2764 19.5 19.5 19.2764 19.5 19.0005V7.5ZM3 7.5V4.9995V4.995C3 3.89319 3.89319 3 4.995 3H4.9995H19.0005H19.005C20.1068 3 21 3.89319 21 4.995V4.9995V7.5V19.0005C21 20.1048 20.1048 21 19.0005 21H4.9995C3.89521 21 3 20.1048 3 19.0005V7.5ZM7.5 10.5H9V12H7.5V10.5ZM9 15H7.5V16.5H9V15ZM11.25 10.5H12.75V12H11.25V10.5ZM12.75 15H11.25V16.5H12.75V15ZM15 10.5H16.5V12H15V10.5ZM16.5 15H15V16.5H16.5V15Z" fill="currentColor"></path></svg>
