<svg viewBox="0 0 24 24" fill="none" xmlns="http://www.w3.org/2000/svg"><path fill-rule="evenodd" clip-rule="evenodd" d="M3 12.2045C3 12.5941 3.15158 12.9684 3.42267 13.2482L9.71878 19.747C11.0769 21.1489 13.3201 21.1667 14.7003 19.7865L19.7873 14.6995C21.1677 13.319 21.1497 11.0753 19.7471 9.71731L13.2459 3.42238C12.9661 3.15147 12.5919 3 12.2025 3H4.5C3.67157 3 3 3.67157 3 4.5V12.2045ZM12.2025 4.5H4.5V12.2045L10.7961 18.7033C11.5714 19.5035 12.8518 19.5137 13.6396 18.7258L18.7266 13.6388C19.5146 12.8509 19.5043 11.5701 18.7037 10.7949L12.2025 4.5ZM8.4975 9.495C9.0484 9.495 9.495 9.0484 9.495 8.4975C9.495 7.9466 9.0484 7.5 8.4975 7.5C7.9466 7.5 7.5 7.9466 7.5 8.4975C7.5 9.0484 7.9466 9.495 8.4975 9.495Z" fill="currentColor"/></svg>