<svg enable-background="new -81 -106.7 35.7 413.7" height="413.7" viewBox="-81 -106.7 35.7 413.7" width="35.7" xmlns="http://www.w3.org/2000/svg"><path d="m-71.9 87.8 6.3-.6c2.2-.2 3.1-.9 4.3-2.7-1.3-1.6-2.5-2.4-4.6-2.2-1 .1-2.1.4-3.1.2-.7-.1 1.4-4.1 1.5-4.5.7-1.9.2-3-.9-4.6-.2-.3-2.7 1.2-2.9 1.5-.9 1-1.2 2.7-1.7 4-1.3 3-3 6-4.1 9.1-.1.1 4.9-.2 5.2-.2z" fill="#222"/><path d="m-51.6 81.6c-4-3.7-10.7-5.1-15.1-1.2 3.6-.9 7.2.8 10 3 2.1 1.6 3.9 3.6 4.8 6 1.2 3.3.6 7.2-1.5 10-2.7 3.6-7.3 5.2-11.7 4.9-1.6-.1-3.1-.5-4.3-.9-1.3-.4-2.4-.9-3.5-1.6-2.3-1.3-4.4-2.9-7-4.9 1.4 2.9 2.6 5.5 4.8 7.7 1.1 1.1 2.4 2.2 4 2.9 1.6.8 3.5 1.4 5.7 1.5 8.4.8 17.2-4.6 18.9-13.1.8-5-1.2-10.7-5.1-14.3z" fill="#222"/><g fill="#fff"><path d="m-81-34.7h12.5v30h-12.5zm17.5 0h12.5v30h-12.5z"/><path d="m-45.3 22.9v3.2h-3.2l-4-4-4 4h-3.2v-3.2l4-4-4-4v-3.2h3.2l4 4 4-4h3.2v3.2l-4 4z"/><path d="m-65.5 35.6c-.3 0-.6-.1-.8-.3l-9.2-9.2h-4.3c-.7 0-1.2-.5-1.2-1.2v-11.9c0-.7.5-1.2 1.2-1.2h4.3l9.2-9.2c.3-.3.9-.4 1.3-.3s.7.6.7 1.1v30.9c0 .5-.3.9-.7 1.1-.2.1-.4.2-.5.2z"/><path d="m-54.3 66.7c-.5 0-.9-.2-1.3-.5-.7-.7-.7-1.8 0-2.5 4.9-4.9 4.9-12.8 0-17.6-.7-.7-.7-1.8 0-2.5s1.8-.7 2.5 0c3 3 4.7 7 4.7 11.3s-1.7 8.3-4.7 11.3c-.3.4-.8.5-1.2.5zm-6.3-3.3c-.5 0-.9-.2-1.3-.5-.7-.7-.7-1.8 0-2.5 3-3 3-7.9 0-10.9-.7-.7-.7-1.8 0-2.5s1.8-.7 2.5 0c4.4 4.4 4.4 11.5 0 15.9-.3.3-.8.5-1.2.5z"/><path d="m-65.6 71.5c-.3 0-.6-.1-.8-.3l-9.1-9.1h-4.3c-.7 0-1.2-.5-1.2-1.2v-11.9c0-.7.5-1.2 1.2-1.2h4.3l9.1-9.1c.3-.3.8-.4 1.3-.3.4.2.7.6.7 1.1v30.8c0 .5-.3.9-.7 1.1-.2.1-.3.1-.5.1z"/><path d="m-81-70.6 30 18-30 17.9z"/></g><path d="m-46.4-76.3-8.4-7.2c-.9-.8-1.8-1.1-2.6-1.1 2-2.3 3.2-5.4 3.2-8.7 0-7.4-6-13.4-13.4-13.4s-13.4 6-13.4 13.4 6 13.4 13.4 13.4c3.3 0 6.3-1.2 8.7-3.2 0 .8.3 1.7 1.1 2.6l7.2 8.4c1.2 1.4 3.2 1.5 4.5.3 1.1-1.3 1-3.3-.3-4.5zm-21.2-8.1c-4.9 0-8.9-4-8.9-8.9s4-8.9 8.9-8.9 8.9 4 8.9 8.9-4 8.9-8.9 8.9z" fill="#222"/><path d="m-81 112.3h35.5v6.6h-35.5zm0 11.1h35.5v6.6h-35.5zm0 11.2h35.5v6.6h-35.5z" fill="#222"/><path d="m-48.3 172.4-9.1-9.1 9.1-9.1c.1-.1.2-.2.2-.3.1-.3.1-.7-.2-1l-4.3-4.3c-.3-.3-.7-.3-1-.2-.1 0-.2.1-.3.2l-9.1 9.1-9.1-9.1c-.1-.1-.2-.2-.3-.2-.3-.1-.7-.1-1 .2l-4.3 4.3c-.3.3-.3.7-.2 1 0 .1.1.2.2.3l9.1 9.1-9.1 9.1c-.1.1-.2.2-.2.3-.1.3-.1.7.2 1l4.3 4.3c.3.3.7.3 1 .2.1 0 .2-.1.3-.2l9.1-9.1 9.1 9.1c.1.1.2.2.3.2.3.1.7.1 1-.2l4.3-4.3c.3-.3.3-.7.2-1-0-.1-.1-.2-.2-.3z" fill="#222"/><path d="m-63.9 201.6c-.3-1.6-1-3.1-2.1-4.2-1.5-1.6-3.8-2.4-6-2 2.1 1 4.2 2.2 5.4 4.2 1.6 2.6 1.3 6.4-.7 8.7s-5.6 2.8-8.2 1.2c-1.8-1.1-2.9-3.1-3.4-5.2s-.2-4.3.5-6.4c1.8-5.9 7-10.3 12.9-10.7v2.7c-3.1.2-6.1 2-7.9 4.7-.1.2-.2.4-.2.6.1.5.9.5 1.1 0 1.9-1.9 4.5-3.2 7.1-3.4.6-.1 1.3-.2 1.5-.7.1-.2.1-.4.1-.6 0-1.2 0-2.4 0-3.7 0-.4 0-.7-.2-1-.4-.7-1.3-.7-2-.6-6.2.9-11.8 5.6-14 11.8-.8 2.1-1.1 4.4-.9 6.7s1.1 4.5 2.6 6.1c2.4 2.6 6.3 3.3 9.4 1.9 3.1-1.5 5.2-5 5.1-8.6 0-.6 0-1.1-.1-1.5z" fill="#222"/><path d="m-45.5 201.6c-.3-1.6-1-3.1-2.1-4.2-1.5-1.6-3.8-2.4-6-2 2.1 1 4.2 2.2 5.4 4.2 1.6 2.6 1.3 6.4-.7 8.7s-5.6 2.8-8.2 1.2c-1.8-1.1-2.9-3.1-3.4-5.2-.4-2.1-.2-4.3.5-6.4 1.8-5.9 7-10.3 12.9-10.7v2.7c-3.1.2-6.1 2-7.9 4.7-.1.2-.2.4-.2.6.1.5.9.5 1.1 0 1.9-1.9 4.5-3.2 7.1-3.4.6-.1 1.3-.2 1.5-.7.1-.2.1-.4.1-.6 0-1.2 0-2.4 0-3.7 0-.4 0-.7-.2-1-.4-.7-1.3-.7-2-.6-6.2.9-11.8 5.6-14 11.8-.8 2.1-1.1 4.4-.9 6.7s1.1 4.5 2.6 6.1c2.4 2.6 6.3 3.3 9.4 1.9 3.1-1.5 5.2-5 5.1-8.6 0-.6 0-1.1-.1-1.5z" fill="#222"/></svg>