<svg version="1.1" id="Layer_1" xmlns="http://www.w3.org/2000/svg" xmlns:xlink="http://www.w3.org/1999/xlink" x="0px" y="0px" width="35.7px" height="413.7px" viewBox="-81 -106.7 35.7 413.7" style="enable-background:new -81 -106.7 35.7 413.7;" xml:space="preserve">
<style type="text/css">
	.sprite-black{fill:#222222;}
	.sprite-white{fill:#ffffff;}
</style>
<g>
	<path class="sprite-black" d="M-71.9,87.8c2.1-0.2,4.2-0.4,6.3-0.6c2.2-0.2,3.1-0.9,4.3-2.7c-1.3-1.6-2.5-2.4-4.6-2.2
		c-1,0.1-2.1,0.4-3.1,0.2c-0.7-0.1,1.4-4.1,1.5-4.5c0.7-1.9,0.2-3-0.9-4.6c-0.2-0.3-2.7,1.2-2.9,1.5c-0.9,1-1.2,2.7-1.7,4
		c-1.3,3-3,6-4.1,9.1C-77.2,88.1-72.2,87.8-71.9,87.8z"/>
	<path class="sprite-black" d="M-51.6,81.6c-4-3.7-10.7-5.1-15.1-1.2c3.6-0.9,7.2,0.8,10,3c2.1,1.6,3.9,3.6,4.8,6c1.2,3.3,0.6,7.2-1.5,10
		c-2.7,3.6-7.3,5.2-11.7,4.9c-1.6-0.1-3.1-0.5-4.3-0.9c-1.3-0.4-2.4-0.9-3.5-1.6c-2.3-1.3-4.4-2.9-7-4.9c1.4,2.9,2.6,5.5,4.8,7.7
		c1.1,1.1,2.4,2.2,4,2.9c1.6,0.8,3.5,1.4,5.7,1.5c8.4,0.8,17.2-4.6,18.9-13.1C-45.7,90.9-47.7,85.2-51.6,81.6z"/>
</g>
<path class="sprite-white" d="M-81-34.7h12.5v30H-81V-34.7z M-63.5-34.7H-51v30h-12.5V-34.7z"/>
<g>
	<path class="sprite-white" d="M-45.3,22.9v3.2h-3.2l-4-4l-4,4h-3.2v-3.2l4-4l-4-4v-3.2h3.2l4,4l4-4h3.2v3.2l-4,4L-45.3,22.9z"/>
	<path class="sprite-white" d="M-65.5,35.6c-0.3,0-0.6-0.1-0.8-0.3l-9.2-9.2h-4.3c-0.7,0-1.2-0.5-1.2-1.2V13c0-0.7,0.5-1.2,1.2-1.2h4.3
		l9.2-9.2c0.3-0.3,0.9-0.4,1.3-0.3s0.7,0.6,0.7,1.1v30.9c0,0.5-0.3,0.9-0.7,1.1C-65.2,35.5-65.4,35.6-65.5,35.6z"/>
</g>
<g>
	<path class="sprite-white" d="M-54.3,66.7c-0.5,0-0.9-0.2-1.3-0.5c-0.7-0.7-0.7-1.8,0-2.5c4.9-4.9,4.9-12.8,0-17.6c-0.7-0.7-0.7-1.8,0-2.5
		s1.8-0.7,2.5,0c3,3,4.7,7,4.7,11.3s-1.7,8.3-4.7,11.3C-53.4,66.6-53.9,66.7-54.3,66.7L-54.3,66.7L-54.3,66.7z M-60.6,63.4
		c-0.5,0-0.9-0.2-1.3-0.5c-0.7-0.7-0.7-1.8,0-2.5c3-3,3-7.9,0-10.9c-0.7-0.7-0.7-1.8,0-2.5c0.7-0.7,1.8-0.7,2.5,0
		c4.4,4.4,4.4,11.5,0,15.9C-59.7,63.2-60.2,63.4-60.6,63.4L-60.6,63.4z"/>
	<path class="sprite-white" d="M-65.6,71.5c-0.3,0-0.6-0.1-0.8-0.3l-9.1-9.1h-4.3c-0.7,0-1.2-0.5-1.2-1.2V49c0-0.7,0.5-1.2,1.2-1.2h4.3
		l9.1-9.1c0.3-0.3,0.8-0.4,1.3-0.3c0.4,0.2,0.7,0.6,0.7,1.1v30.8c0,0.5-0.3,0.9-0.7,1.1C-65.3,71.5-65.4,71.5-65.6,71.5z"/>
</g>
<path class="sprite-white" d="M-81-70.6l30,18l-30,17.9V-70.6z"/>
<path class="sprite-black" d="M-46.4-76.3l-8.4-7.2c-0.9-0.8-1.8-1.1-2.6-1.1c2-2.3,3.2-5.4,3.2-8.7c0-7.4-6-13.4-13.4-13.4
	s-13.4,6-13.4,13.4s6,13.4,13.4,13.4c3.3,0,6.3-1.2,8.7-3.2c0,0.8,0.3,1.7,1.1,2.6l7.2,8.4c1.2,1.4,3.2,1.5,4.5,0.3
	C-45-73.1-45.1-75.1-46.4-76.3L-46.4-76.3z M-67.6-84.4c-4.9,0-8.9-4-8.9-8.9s4-8.9,8.9-8.9s8.9,4,8.9,8.9S-62.7-84.4-67.6-84.4z"/>
<path class="sprite-black" d="M-81,112.3h35.5v6.6H-81V112.3z M-81,123.4h35.5v6.6H-81V123.4z M-81,134.6h35.5v6.6H-81V134.6z"/>
<path class="sprite-black" d="M-48.3,172.4L-48.3,172.4l-9.1-9.1l9.1-9.1l0,0c0.1-0.1,0.2-0.2,0.2-0.3c0.1-0.3,0.1-0.7-0.2-1l-4.3-4.3
	c-0.3-0.3-0.7-0.3-1-0.2c-0.1,0-0.2,0.1-0.3,0.2l0,0l-9.1,9.1l-9.1-9.1l0,0c-0.1-0.1-0.2-0.2-0.3-0.2c-0.3-0.1-0.7-0.1-1,0.2
	l-4.3,4.3c-0.3,0.3-0.3,0.7-0.2,1c0,0.1,0.1,0.2,0.2,0.3l0,0l9.1,9.1l-9.1,9.1l0,0c-0.1,0.1-0.2,0.2-0.2,0.3c-0.1,0.3-0.1,0.7,0.2,1
	l4.3,4.3c0.3,0.3,0.7,0.3,1,0.2c0.1,0,0.2-0.1,0.3-0.2l0,0l9.1-9.1l9.1,9.1l0,0c0.1,0.1,0.2,0.2,0.3,0.2c0.3,0.1,0.7,0.1,1-0.2
	l4.3-4.3c0.3-0.3,0.3-0.7,0.2-1C-48.1,172.6-48.2,172.5-48.3,172.4z"/>
<g>
	<path class="sprite-black" d="M-63.9,201.6c-0.3-1.6-1-3.1-2.1-4.2c-1.5-1.6-3.8-2.4-6-2c2.1,1,4.2,2.2,5.4,4.2c1.6,2.6,1.3,6.4-0.7,8.7
		s-5.6,2.8-8.2,1.2c-1.8-1.1-2.9-3.1-3.4-5.2s-0.2-4.3,0.5-6.4c1.8-5.9,7-10.3,12.9-10.7c0,0.9,0,1.8,0,2.7c-3.1,0.2-6.1,2-7.9,4.7
		c-0.1,0.2-0.2,0.4-0.2,0.6c0.1,0.5,0.9,0.5,1.1,0c1.9-1.9,4.5-3.2,7.1-3.4c0.6-0.1,1.3-0.2,1.5-0.7c0.1-0.2,0.1-0.4,0.1-0.6
		c0-1.2,0-2.4,0-3.7c0-0.4,0-0.7-0.2-1c-0.4-0.7-1.3-0.7-2-0.6c-6.2,0.9-11.8,5.6-14,11.8c-0.8,2.1-1.1,4.4-0.9,6.7s1.1,4.5,2.6,6.1
		c2.4,2.6,6.3,3.3,9.4,1.9c3.1-1.5,5.2-5,5.1-8.6C-63.8,202.5-63.8,202-63.9,201.6z M-65.5,189.9C-65.5,189.9-65.5,189.9-65.5,189.9
		L-65.5,189.9L-65.5,189.9z"/>
</g>
<g>
	<path class="sprite-black" d="M-45.5,201.6c-0.3-1.6-1-3.1-2.1-4.2c-1.5-1.6-3.8-2.4-6-2c2.1,1,4.2,2.2,5.4,4.2c1.6,2.6,1.3,6.4-0.7,8.7
		s-5.6,2.8-8.2,1.2c-1.8-1.1-2.9-3.1-3.4-5.2c-0.4-2.1-0.2-4.3,0.5-6.4c1.8-5.9,7-10.3,12.9-10.7c0,0.9,0,1.8,0,2.7
		c-3.1,0.2-6.1,2-7.9,4.7c-0.1,0.2-0.2,0.4-0.2,0.6c0.1,0.5,0.9,0.5,1.1,0c1.9-1.9,4.5-3.2,7.1-3.4c0.6-0.1,1.3-0.2,1.5-0.7
		c0.1-0.2,0.1-0.4,0.1-0.6c0-1.2,0-2.4,0-3.7c0-0.4,0-0.7-0.2-1c-0.4-0.7-1.3-0.7-2-0.6c-6.2,0.9-11.8,5.6-14,11.8
		c-0.8,2.1-1.1,4.4-0.9,6.7s1.1,4.5,2.6,6.1c2.4,2.6,6.3,3.3,9.4,1.9c3.1-1.5,5.2-5,5.1-8.6C-45.4,202.5-45.4,202-45.5,201.6z
		 M-47.1,189.9C-47.1,189.9-47.1,189.9-47.1,189.9L-47.1,189.9L-47.1,189.9z"/>
</g>
</svg>