<svg fill="none" height="17" viewBox="0 0 17 17" width="17" xmlns="http://www.w3.org/2000/svg"><path clip-rule="evenodd" d="m1 .25c-.414214 0-.75.335786-.75.75v7.82613c0 .19903.079111.38989.219909.53057l6.720881 6.7148c.21485.215.46994.3856.7507.502.28103.1165.58227.1765.8865.1765s.60547-.06.8865-.1765c.2809-.1165.53641-.2875.75131-.5026l5.6096-5.611-.5304-.53029.5319.52869c.4312-.4338.6731-1.02059.6731-1.63217 0-.61159-.2419-1.19837-.6731-1.63217l-6.72242-6.724221c-.14066-.140694-.33145-.219739-.5304-.219739zm14.25 8.57613c0 .21514-.085.42151-.2364.57418l-5.6092 5.61069c-.07568.0758-.16554.1359-.26445.1769-.0989.041-.2049.0621-.31196.0621-.10705 0-.21306-.0211-.31196-.0621s-.18937-.1017-.26506-.1775l-6.50097-6.49513v-6.76527h6.76336l6.50034 6.502c.1513.15266.2363.35901.2363.57413zm-10.25-2.82613c.55228 0 1-.44772 1-1s-.44772-1-1-1-1 .44772-1 1 .44772 1 1 1z" fill="#000" fill-rule="evenodd"/></svg>