<svg fill="none" height="16" viewBox="0 0 18 16" width="18" xmlns="http://www.w3.org/2000/svg"><path clip-rule="evenodd" d="m9.19795 3.75-.9868-1.97361c-.0847-.16939-.25783-.27639-.44722-.27639h-5.76393c-.27614 0-.5.22386-.5.5v11.75c0 .2761.22386.5.5.5h14c.2761 0 .5-.2239.5-.5v-9.5c0-.27614-.2239-.5-.5-.5zm.92705-1.5-.57221-1.14443c-.33879-.677565-1.03131-1.10557-1.78886-1.10557h-5.76393c-1.104569 0-2 .895431-2 2v11.75c0 1.1046.89543 2 2 2h14c1.1046 0 2-.8954 2-2v-9.5c0-1.10457-.8954-2-2-2z" fill="#000" fill-rule="evenodd"/></svg>