<svg enable-background="new 0 0 236 61" height="61" viewBox="0 0 236 61" width="236" xmlns="http://www.w3.org/2000/svg"><path d="m30.4 6c13.5 0 24.4 11 24.4 24.4s-11 24.4-24.4 24.4-24.4-10.9-24.4-24.4 11-24.4 24.4-24.4m0-5c-16.2 0-29.4 13.2-29.4 29.4s13.2 29.4 29.4 29.4 29.4-13.2 29.4-29.4-13.1-29.4-29.4-29.4z" fill="#ddd"/><path d="m30.4 7.6c-12.7 0-22.9 10.3-22.9 22.9s10.2 22.9 22.9 22.9 22.9-10.2 22.9-22.9c-.1-12.6-10.3-22.9-22.9-22.9zm-6.2 25.2c-1.3 1.3-3.4 1.3-4.7 0s-1.3-3.4 0-4.7 3.4-1.3 4.7 0 1.3 3.4 0 4.7zm8 8c-1.3 1.3-3.4 1.3-4.7 0s-1.3-3.4 0-4.7 3.4-1.3 4.7 0 1.3 3.4 0 4.7zm0-16.1c-1.3 1.3-3.4 1.3-4.7 0s-1.3-3.4 0-4.7 3.4-1.3 4.7 0 1.3 3.4 0 4.7zm8.1 8.1c-1.3 1.3-3.4 1.3-4.7 0s-1.3-3.4 0-4.7 3.4-1.3 4.7 0 1.3 3.4 0 4.7z" fill="#ddd"/><g fill="#eee"><path d="m105.5 9.1c-11.7 0-21.2 9.5-21.2 21.2s9.5 21.2 21.2 21.2 21.2-9.5 21.2-21.2-9.4-21.2-21.2-21.2zm-5.8 29.9c-1.8 0-3.2-1.4-3.2-3.2s1.4-3.2 3.2-3.2 3.2 1.4 3.2 3.2-1.4 3.2-3.2 3.2zm0-10.9c-1.8 0-3.2-1.4-3.2-3.2s1.4-3.2 3.2-3.2 3.2 1.4 3.2 3.2c.1 1.7-1.4 3.2-3.2 3.2zm11 10.9c-1.8 0-3.2-1.4-3.2-3.2s1.4-3.2 3.2-3.2 3.2 1.4 3.2 3.2-1.4 3.2-3.2 3.2zm0-10.9c-1.8 0-3.2-1.4-3.2-3.2s1.4-3.2 3.2-3.2 3.2 1.4 3.2 3.2c0 1.7-1.4 3.2-3.2 3.2z"/><path d="m213.1 9.1c-11.7 0-21.2 9.5-21.2 21.2s9.5 21.2 21.2 21.2 21.2-9.4 21.2-21.2-9.5-21.2-21.2-21.2zm-5.8 29.9c-1.8 0-3.2-1.4-3.2-3.2s1.4-3.2 3.2-3.2 3.2 1.4 3.2 3.2-1.5 3.2-3.2 3.2zm0-10.9c-1.8 0-3.2-1.4-3.2-3.2s1.4-3.2 3.2-3.2 3.2 1.4 3.2 3.2c0 1.7-1.5 3.2-3.2 3.2zm10.9 10.9c-1.8 0-3.2-1.4-3.2-3.2s1.4-3.2 3.2-3.2 3.2 1.4 3.2 3.2-1.4 3.2-3.2 3.2zm0-10.9c-1.8 0-3.2-1.4-3.2-3.2s1.4-3.2 3.2-3.2 3.2 1.4 3.2 3.2c0 1.7-1.4 3.2-3.2 3.2z"/><path d="m159.4 6c13.5 0 24.4 11 24.4 24.4s-11 24.4-24.4 24.4-24.4-11-24.4-24.4 10.9-24.4 24.4-24.4m0-5c-16.2 0-29.4 13.2-29.4 29.4s13.2 29.4 29.4 29.4 29.4-13.2 29.4-29.4-13.2-29.4-29.4-29.4z"/><path d="m159.4 7.7c-12.6 0-22.9 10.2-22.9 22.9 0 12.6 10.2 22.9 22.9 22.9s22.8-10.3 22.8-23c-0-12.6-10.2-22.8-22.8-22.8zm-6.2 25.1c-1.3 1.3-3.4 1.3-4.7 0s-1.3-3.4 0-4.7 3.4-1.3 4.7 0 1.3 3.4 0 4.7zm8 8.1c-1.3 1.3-3.4 1.3-4.7 0s-1.3-3.4 0-4.7 3.4-1.3 4.7 0 1.3 3.4 0 4.7zm0-16.2c-1.3 1.3-3.4 1.3-4.7 0s-1.3-3.4 0-4.7 3.4-1.3 4.7 0 1.3 3.4 0 4.7zm8.1 8.1c-1.3 1.3-3.4 1.3-4.7 0s-1.3-3.4 0-4.7 3.4-1.3 4.7 0 1.3 3.4 0 4.7z"/></g></svg>