<svg style="position: absolute; width: 0; height: 0; overflow: hidden;" xmlns="http://www.w3.org/2000/svg">
	<symbol viewBox="0 0 16 16" id="icon-close-alt">
		<title>close-alt</title> <polygon points="14.7,2.7 13.3,1.3 8,6.6 2.7,1.3 1.3,2.7 6.6,8 1.3,13.3 2.7,14.7 8,9.4 13.3,14.7 14.7,13.3 9.4,8
	"/>
	</symbol>
	<symbol viewBox="0 0 16 16" id="icon-close">
		<title>close</title> <polygon points="12.7,4.7 11.3,3.3 8,6.6 4.7,3.3 3.3,4.7 6.6,8 3.3,11.3 4.7,12.7 8,9.4 11.3,12.7 12.7,11.3 9.4,8
	"/>
	</symbol>
	<symbol viewBox="0 0 16 16" id="icon-collapse">
		<title>collapse</title> <polygon points="8,4.6 1.3,11.3 2.7,12.7 8,7.4 13.3,12.7 14.7,11.3 "/>
	</symbol>
	<symbol viewBox="0 0 16 16" id="icon-comment">
		<title>comment</title>  <g>
		<path d="M12,4H4C2.9,4,2,4.9,2,6v8l2.4-2.4C4.8,11.2,5.3,11,5.8,11H12c1.1,0,2-0.9,2-2V6C14,4.9,13.1,4,12,4z"/> </g>
	</symbol>
	<symbol viewBox="0 0 16 16" id="icon-ellipsis">
		<title>ellipsis</title>
		<path d="M2,6.2C1,6.2,0.2,7,0.2,8S1,9.8,2,9.8S3.8,9,3.8,8S3,6.2,2,6.2z M14,6.2c-1,0-1.8,0.8-1.8,1.8S13,9.8,14,9.8S15.8,9,15.8,8
	S15,6.2,14,6.2z M8,6.2C7,6.2,6.2,7,6.2,8S7,9.8,8,9.8S9.8,9,9.8,8S9,6.2,8,6.2z"/>
	</symbol>
	<symbol viewBox="0 0 16 16" id="icon-expand">
		<title>expand</title> <polygon points="8,12.7 1.3,6 2.7,4.6 8,9.9 13.3,4.6 14.7,6 "/>
	</symbol>
	<symbol viewBox="0 0 16 16" id="icon-gallery">
		<title>gallery</title>
		<path d="M12,10V4c0-1.1-0.9-2-2-2H4C2.9,2,2,2.9,2,4v6c0,1.1,0.9,2,2,2h6C11.1,12,12,11.1,12,10z M5.5,7l1.1,1.6l1.5-2.4L10,10H4
	L5.5,7z M13,5v8H7H5c0,1.1,0.9,2,2,2h6c1.1,0,2-0.9,2-2V7C15,5.9,14.1,5,13,5z"/>
	</symbol>
	<symbol viewBox="0 0 16 16" id="icon-heart">
		<title>heart</title>
		<path d="M8,13L2.9,8.2C1.8,7.1,1.7,5.2,2.7,4c1-1.2,2.8-1.3,4-0.2L8,5l1.3-1.2c1.2-1.1,3-1,4,0.2c1.1,1.2,1,3.1-0.2,4.2L8,13z"/>
	</symbol>
	<symbol viewBox="0 0 16 16" id="icon-lock">
		<title>lock</title>
		<path d="M12,8V6c0-2.2-1.8-4-4-4S4,3.8,4,6v2C3.4,8,3,8.4,3,9v4c0,0.6,0.4,1,1,1h8c0.6,0,1-0.4,1-1V9C13,8.4,12.6,8,12,8z M6,8V6
	c0-1.1,0.9-2,2-2s2,0.9,2,2v2H6z"/>
	</symbol>
	<symbol viewBox="0 0 16 16" id="icon-menu">
		<title>menu</title>
		<path d="M0,14h16v-2H0V14z M0,2v2h16V2H0z M0,9h16V7H0V9z"/>
	</symbol>
	<symbol viewBox="0 0 16 16" id="icon-next">
		<title>next</title> <polygon points="3,7 9.6,7 7.3,4.7 8.7,3.3 13.4,8 8.7,12.7 7.3,11.3 9.6,9 3,9 "/>
	</symbol>
	<symbol viewBox="0 0 16 16" id="icon-pinned">
		<title>pinned</title>
		<path d="M12,8c0-0.5-0.5-1-1-1h-0.6l-0.3-3C10.6,3.9,11,3.5,11,3c0-0.5-0.5-1-1-1H6C5.5,2,5,2.5,5,3c0,0.5,0.4,0.9,0.9,1L5.6,7H5
	C4.5,7,4,7.5,4,8v1h3v6l2-1V9h3V8z"/>
	</symbol>
	<symbol viewBox="0 0 16 16" id="icon-previous">
		<title>previous</title> <polygon points="13,7 6.4,7 8.7,4.7 7.3,3.3 2.6,8 7.3,12.7 8.7,11.3 6.4,9 13,9 "/>
	</symbol>
	<symbol viewBox="0 0 16 16" id="icon-reply">
		<title>reply</title>
		<path d="M10,6H8V3L3,8l5,5v-3h2c1,0,2,0.4,2.8,1.2l1.2,1.2V10C14,7.8,12.2,6,10,6z"/>
	</symbol>
	<symbol viewBox="0 0 16 16" id="icon-search">
		<title>search</title>
		<path d="M14.7,13.3L11,9.6c0.6-0.9,1-2,1-3.1C12,3.5,9.5,1,6.5,1S1,3.5,1,6.5S3.5,12,6.5,12c1.2,0,2.2-0.4,3.1-1l3.7,3.7L14.7,13.3z
	 M2.5,6.5c0-2.2,1.8-4,4-4s4,1.8,4,4s-1.8,4-4,4S2.5,8.7,2.5,6.5z"/>
	</symbol>
	<symbol viewBox="0 0 16 16" id="icon-share">
		<title>share</title>
		<path d="M7,4.4V10h2V4.4l1.1,1.1l1.4-1.4L8,0.6L4.5,4.1l1.4,1.4L7,4.4z M12,6h-2v1.5h2c0.3,0,0.5,0.2,0.5,0.5v4
	c0,0.3-0.2,0.5-0.5,0.5H4c-0.3,0-0.5-0.2-0.5-0.5V8c0-0.3,0.2-0.5,0.5-0.5h2V6H4C2.9,6,2,6.9,2,8v4c0,1.1,0.9,2,2,2h8
	c1.1,0,2-0.9,2-2V8C14,6.9,13.1,6,12,6z"/>
	</symbol>
	<symbol viewBox="0 0 16 16" id="icon-star">
		<title>star</title> <polygon points="8,1.3 10,5.9 15,6.4 11.3,9.8 12.3,14.7 8,12.2 3.7,14.7 4.7,9.8 1,6.4 6,5.9 "/>
	</symbol>
</svg>